<?xml version="1.0" encoding="UTF-8"?>
<svg xmlns="http://www.w3.org/2000/svg" xmlns:xlink="http://www.w3.org/1999/xlink" width="218px" height="150px" viewBox="0 0 218 150" version="1.1">
<g id="surface1">
<path style=" stroke:none;fill-rule:nonzero;fill:rgb(100%,100%,100%);fill-opacity:1;" d="M 113.109375 128.828125 C 115.457031 127.71875 117.199219 125.734375 117.199219 122.382812 L 117.199219 122.308594 C 117.199219 120.328125 116.550781 118.792969 115.484375 117.648438 C 113.929688 115.953125 111.578125 115.050781 108.234375 115.050781 L 95.269531 115.050781 L 94.605469 143.238281 C 94.605469 143.628906 94.894531 143.960938 95.269531 143.960938 L 108.300781 143.960938 C 114.644531 143.960938 118.363281 140.941406 118.363281 135.996094 L 118.363281 135.90625 C 118.386719 131.972656 116.339844 129.988281 113.109375 128.828125 Z M 101.800781 121.480469 L 106.578125 121.480469 C 108.773438 121.480469 109.921875 122.382812 109.921875 123.957031 L 109.921875 124.039062 C 109.921875 125.734375 108.664062 126.5625 106.425781 126.5625 L 101.796875 126.5625 L 101.796875 121.480469 Z M 111.027344 134.855469 C 111.027344 136.554688 109.742188 137.5 107.488281 137.5 L 101.800781 137.5 L 101.800781 132.183594 L 107.417969 132.183594 C 109.890625 132.183594 111.027344 133.21875 111.027344 134.777344 Z M 202.207031 143.179688 L 196.347656 133.863281 C 199.652344 132.332031 201.820312 129.398438 201.820312 124.984375 L 201.820312 124.90625 C 201.820312 122.054688 201.019531 119.828125 199.46875 118.175781 C 197.6875 116.191406 194.886719 115.035156 190.8125 115.035156 L 178.699219 115.035156 L 178.257812 143.449219 C 178.257812 143.71875 178.449219 143.929688 178.699219 143.929688 L 185.160156 143.929688 L 185.605469 135.679688 C 185.605469 135.410156 185.808594 135.203125 186.046875 135.203125 L 188.820312 135.203125 L 194.042969 143.734375 L 201.832031 143.945312 C 202.191406 143.945312 202.410156 143.511719 202.203125 143.179688 Z M 194.417969 125.492188 C 194.417969 127.597656 192.976562 128.917969 190.464844 128.917969 L 186.0625 128.917969 L 185.617188 122.457031 C 185.617188 122.1875 185.824219 121.976562 186.058594 121.976562 L 190.4375 121.976562 C 192.910156 121.976562 194.433594 123.136719 194.433594 125.402344 L 194.433594 125.492188 Z M 36.519531 128.828125 C 38.863281 127.71875 40.601562 125.734375 40.601562 122.382812 L 40.601562 122.308594 C 40.601562 120.328125 39.957031 118.792969 38.886719 117.648438 C 37.332031 115.953125 34.980469 115.050781 31.636719 115.050781 L 18.671875 115.050781 L 18.007812 143.238281 C 18.007812 143.628906 18.296875 143.960938 18.671875 143.960938 L 31.707031 143.960938 C 38.046875 143.960938 41.761719 140.941406 41.761719 135.996094 L 41.761719 135.90625 C 41.777344 131.972656 39.734375 129.988281 36.515625 128.828125 Z M 25.191406 121.480469 L 29.964844 121.480469 C 32.167969 121.480469 33.308594 122.382812 33.308594 123.957031 L 33.308594 124.039062 C 33.308594 125.734375 32.054688 126.5625 29.816406 126.5625 L 25.1875 126.5625 L 25.1875 121.480469 Z M 34.417969 134.855469 C 34.417969 136.554688 33.132812 137.5 30.882812 137.5 L 25.191406 137.5 L 25.191406 132.183594 L 30.808594 132.183594 C 33.28125 132.183594 34.417969 133.21875 34.417969 134.777344 Z M 52.191406 115.035156 L 45.6875 115.035156 L 45.246094 143.449219 C 45.246094 143.71875 45.453125 143.929688 45.6875 143.929688 L 52.195312 143.929688 L 52.636719 115.53125 Z M 81.636719 127.054688 L 72.835938 127.054688 L 69.277344 132.148438 L 74.644531 132.917969 C 74.894531 132.917969 75.085938 133.128906 75.085938 133.398438 L 75.085938 136.148438 C 73.816406 137.257812 72.519531 137.617188 70.851562 137.617188 C 66.640625 137.617188 63.636719 134.269531 63.636719 129.613281 L 63.636719 129.535156 C 63.636719 125.121094 66.59375 121.601562 70.433594 121.601562 C 72.160156 121.601562 73.570312 122.039062 74.882812 122.832031 C 75.085938 122.957031 75.339844 122.898438 75.460938 122.695312 L 78.871094 117.484375 C 76.460938 115.304688 73.789062 114.46875 70.390625 114.46875 C 62.164062 114.46875 56.085938 121.074219 56.085938 129.492188 L 56.085938 129.566406 C 56.085938 138.324219 62.273438 144.515625 70.542969 144.515625 C 75.269531 144.515625 79.121094 142.652344 81.910156 140.203125 L 82.078125 127.539062 Z M 142.925781 137.125 L 129.574219 137.125 L 129.128906 133.039062 C 129.128906 132.769531 129.328125 132.554688 129.574219 132.554688 L 138.988281 132.554688 L 139.335938 126.617188 L 129.574219 126.246094 L 129.128906 122.367188 C 129.128906 122.097656 129.328125 121.886719 129.574219 121.886719 L 142.863281 121.886719 L 143.203125 115.457031 L 122.28125 115.082031 L 121.839844 143.496094 C 121.839844 143.765625 122.046875 143.972656 122.28125 143.972656 L 140.570312 143.972656 L 143.246094 137.695312 C 143.34375 137.410156 143.175781 137.121094 142.929688 137.121094 Z M 163.667969 115.335938 L 156.585938 115.035156 L 145.3125 143.269531 L 152.496094 143.945312 C 152.675781 143.945312 152.839844 143.824219 152.910156 143.644531 L 154.582031 139.09375 L 164.636719 138.789062 C 164.816406 138.789062 164.976562 138.914062 165.050781 139.09375 L 166.765625 143.644531 L 174.097656 143.945312 Z M 162.183594 132.542969 L 157.542969 132.542969 L 159.460938 125.476562 C 159.609375 125.074219 160.148438 125.074219 160.285156 125.476562 L 162.597656 131.878906 Z M 53.078125 154.722656 L 50.90625 150.917969 L 48.933594 150.917969 L 48.933594 159.933594 L 50.726562 159.933594 L 50.726562 154.070312 L 53.035156 157.886719 L 53.078125 157.886719 L 55.40625 154.042969 L 55.40625 159.933594 L 57.230469 159.933594 L 57.230469 150.917969 L 55.261719 150.917969 L 53.078125 154.71875 Z M 63.019531 150.75 C 60.460938 150.75 58.601562 152.855469 58.601562 155.410156 L 58.601562 155.441406 C 58.601562 158.011719 60.4375 160.085938 62.992188 160.085938 C 65.546875 160.085938 67.410156 157.976562 67.410156 155.425781 L 67.410156 155.394531 C 67.425781 152.824219 65.589844 150.75 63.019531 150.75 Z M 65.519531 155.441406 C 65.519531 156.988281 64.496094 158.25 63.035156 158.25 C 61.570312 158.25 60.519531 156.957031 60.519531 155.410156 L 60.519531 155.378906 C 60.519531 153.832031 61.542969 152.570312 63.003906 152.570312 C 64.464844 152.570312 65.519531 153.863281 65.519531 155.410156 Z M 74.207031 156.070312 C 74.207031 157.496094 73.53125 158.234375 72.421875 158.234375 C 71.304688 158.234375 70.644531 157.46875 70.644531 156.007812 L 70.644531 150.902344 L 68.820312 150.902344 L 68.820312 156.054688 C 68.820312 158.714844 70.1875 160.066406 72.410156 160.066406 C 74.632812 160.066406 76.042969 158.730469 76.042969 155.996094 L 76.042969 150.902344 L 74.21875 150.902344 L 74.21875 156.070312 Z M 83.222656 156.460938 L 79.34375 150.917969 L 77.65625 150.917969 L 77.65625 159.933594 L 79.453125 159.933594 L 79.453125 154.191406 L 83.472656 159.933594 L 85.019531 159.933594 L 85.019531 150.917969 L 83.222656 150.917969 Z M 93.527344 150.917969 L 86.652344 150.917969 L 86.652344 152.734375 L 89.175781 152.734375 L 89.175781 159.933594 L 91 159.933594 L 91 152.730469 L 93.527344 152.730469 L 93.527344 150.914062 Z M 96.46875 150.84375 L 92.917969 159.933594 L 94.785156 159.933594 L 95.539062 157.902344 L 99.050781 157.902344 L 99.808594 159.933594 L 101.71875 159.933594 L 98.171875 150.84375 Z M 96.191406 156.144531 L 97.296875 153.214844 L 98.402344 156.144531 Z M 104.589844 150.917969 L 102.765625 150.917969 L 102.765625 159.933594 L 104.589844 159.933594 Z M 111.785156 156.460938 L 107.902344 150.917969 L 106.214844 150.917969 L 106.214844 159.933594 L 108.015625 159.933594 L 108.015625 154.191406 L 112.03125 159.933594 L 113.582031 159.933594 L 113.582031 150.917969 L 111.785156 150.917969 Z M 128.191406 153.90625 L 128.191406 153.875 C 128.191406 152.027344 127.019531 150.902344 125.070312 150.902344 L 121.289062 150.902344 L 121.289062 159.917969 L 123.109375 159.917969 L 123.109375 157.03125 L 124.546875 157.03125 L 126.328125 159.917969 L 128.445312 159.917969 L 126.410156 156.703125 C 127.472656 156.28125 128.191406 155.363281 128.191406 153.90625 Z M 126.355469 154.011719 C 126.355469 154.777344 125.84375 155.289062 124.960938 155.289062 L 123.109375 155.289062 L 123.109375 152.707031 L 124.917969 152.707031 C 125.804688 152.707031 126.355469 153.140625 126.355469 153.996094 Z M 131.8125 156.265625 L 135.722656 156.265625 L 135.722656 154.507812 L 131.8125 154.507812 L 131.8125 152.671875 L 136.257812 152.671875 L 136.257812 150.917969 L 130 150.917969 L 130 159.933594 L 136.3125 159.933594 L 136.3125 158.160156 L 131.8125 158.160156 Z M 141.792969 154.523438 C 140.363281 154.117188 140.015625 153.9375 140.015625 153.335938 L 140.015625 153.304688 C 140.015625 152.871094 140.386719 152.527344 141.078125 152.527344 C 141.785156 152.527344 142.5 152.855469 143.230469 153.414062 L 144.1875 151.925781 C 143.316406 151.164062 142.222656 150.757812 141.105469 150.78125 C 139.40625 150.78125 138.207031 151.863281 138.207031 153.503906 L 138.207031 153.53125 C 138.207031 155.320312 139.28125 155.832031 140.953125 156.28125 C 142.332031 156.671875 142.625 156.929688 142.625 157.421875 L 142.625 157.453125 C 142.625 157.980469 142.167969 158.308594 141.421875 158.308594 C 140.46875 158.308594 139.695312 157.886719 138.949219 157.214844 L 137.875 158.625 C 138.867188 159.589844 140.136719 160.066406 141.394531 160.066406 C 143.175781 160.066406 144.433594 159.058594 144.433594 157.269531 L 144.433594 157.242188 C 144.433594 155.667969 143.480469 155.003906 141.792969 154.523438 Z M 150.082031 150.75 C 147.523438 150.75 145.664062 152.855469 145.664062 155.410156 L 145.664062 155.441406 C 145.664062 158.011719 147.5 160.085938 150.054688 160.085938 C 152.609375 160.085938 154.476562 157.976562 154.476562 155.425781 L 154.476562 155.394531 C 154.476562 152.824219 152.636719 150.75 150.082031 150.75 Z M 152.570312 155.441406 C 152.570312 156.988281 151.546875 158.25 150.082031 158.25 C 148.617188 158.25 147.570312 156.957031 147.570312 155.410156 L 147.570312 155.378906 C 147.570312 153.832031 148.589844 152.570312 150.054688 152.570312 C 151.519531 152.570312 152.570312 153.863281 152.570312 155.410156 Z M 162.957031 153.90625 L 162.957031 153.875 C 162.957031 152.027344 161.78125 150.902344 159.832031 150.902344 L 156.050781 150.902344 L 156.050781 159.917969 L 157.875 159.917969 L 157.875 157.03125 L 159.308594 157.03125 L 161.089844 159.917969 L 163.214844 159.917969 L 161.191406 156.703125 C 162.222656 156.28125 162.953125 155.363281 162.953125 153.90625 Z M 161.105469 154.011719 C 161.105469 154.777344 160.589844 155.289062 159.707031 155.289062 L 157.859375 155.289062 L 157.859375 152.707031 L 159.667969 152.707031 C 160.554688 152.707031 161.105469 153.140625 161.105469 153.996094 Z M 164.5 150.917969 L 164.5 152.734375 L 167.027344 152.734375 L 167.027344 159.933594 L 168.851562 159.933594 L 168.851562 152.730469 L 171.363281 152.730469 L 171.363281 150.914062 L 164.5 150.914062 Z M 110.429688 99.050781 C 109.726562 99.054688 109.078125 98.609375 108.78125 97.90625 C 108.488281 97.210938 108.597656 96.382812 109.0625 95.804688 L 116.367188 86.457031 C 116.949219 85.71875 117.792969 85.296875 118.675781 85.296875 L 187.289062 85.296875 C 187.894531 85.296875 188.253906 84.535156 187.878906 84.007812 C 183.988281 78.496094 168.78125 57.367188 168.78125 57.367188 C 168.507812 56.980469 168.101562 56.734375 167.65625 56.683594 C 167.210938 56.625 166.765625 56.773438 166.421875 57.085938 L 164.820312 58.523438 C 164.226562 59.082031 163.453125 59.394531 162.664062 59.394531 C 161.644531 59.394531 160.6875 58.882812 160.066406 58.011719 L 145.8125 38.078125 C 145.621094 37.800781 145.316406 37.632812 145 37.621094 C 144.675781 37.609375 144.367188 37.761719 144.160156 38.03125 C 133.6875 51.417969 112.390625 78.675781 106.480469 86.234375 C 97.265625 98.03125 92.933594 99.078125 82.878906 99.078125 L 15.6875 99.078125 C 14.15625 99.078125 12.636719 98.390625 11.707031 97.070312 C 10.402344 95.246094 10.363281 92.703125 11.613281 90.832031 L 52.878906 28.535156 C 53.503906 27.589844 54.523438 27.015625 55.601562 27.015625 C 56.445312 27.015625 57.242188 27.363281 57.855469 27.980469 L 60.503906 30.609375 C 60.691406 30.796875 60.9375 30.886719 61.191406 30.863281 C 61.441406 30.835938 61.671875 30.695312 61.820312 30.472656 L 76.167969 9.949219 C 76.800781 9.03125 77.769531 8.519531 78.832031 8.519531 C 79.898438 8.519531 80.875 9.050781 81.511719 9.980469 L 107.820312 48.207031 C 108.332031 48.941406 108.300781 49.96875 107.75 50.667969 L 101.910156 57.988281 C 101.492188 58.511719 100.878906 58.804688 100.238281 58.777344 C 99.605469 58.757812 99.011719 58.417969 98.625 57.867188 L 79.617188 30.214844 C 79.414062 29.917969 79.09375 29.738281 78.75 29.734375 C 78.40625 29.734375 78.082031 29.902344 77.875 30.199219 L 65.089844 48.46875 C 64.464844 49.367188 63.492188 49.894531 62.464844 49.886719 C 61.632812 49.886719 60.847656 49.550781 60.238281 48.9375 L 58.457031 47.164062 C 58.109375 46.820312 57.640625 46.652344 57.175781 46.703125 C 56.707031 46.753906 56.277344 47.019531 56.003906 47.433594 L 31.679688 84.007812 L 82.875 85.285156 C 89.863281 85.285156 90.597656 85.285156 96.835938 77.292969 C 112.152344 57.695312 127.46875 38.101562 142.785156 18.511719 C 143.4375 17.675781 144.398438 17.207031 145.410156 17.230469 C 146.414062 17.257812 147.351562 17.777344 147.96875 18.648438 L 163.449219 40.296875 C 163.765625 40.734375 164.34375 40.796875 164.734375 40.433594 L 166.847656 38.449219 C 167.539062 37.800781 168.453125 37.488281 169.363281 37.585938 C 170.273438 37.6875 171.105469 38.1875 171.664062 38.976562 L 208.449219 90.425781 C 209.546875 91.972656 209.9375 94.09375 209.214844 95.894531 C 208.464844 97.8125 206.730469 99.058594 204.8125 99.050781 Z M 110.429688 99.050781 "/>
</g>
</svg>
