<?xml version="1.0" encoding="utf-8"?>
<!-- Generator: Adobe Illustrator 23.0.0, SVG Export Plug-In . SVG Version: 6.00 Build 0)  -->
<svg version="1.1" id="Layer_1" xmlns="http://www.w3.org/2000/svg" xmlns:xlink="http://www.w3.org/1999/xlink" x="0px" y="0px"
	 viewBox="0 0 384.12 264.6" style="enable-background:new 0 0 384.12 264.6;" xml:space="preserve">
<g>
	<path d="M296.52,43.21l-0.07-0.06c-2.01-1.59-4.34-2.39-6.92-2.39c-4.99,0-10.03,3.07-12.87,5.72
		c-5.72,6.03-10.89,11.64-17.84,19.37c-2.2,1.84-4.48,3.68-6.9,5.63c-10.16,8.21-21.57,17.44-27.31,26.96
		c0.51-8.34,7.49-35.49,12.29-54.17c7.34-28.53,7.14-28.63,6.12-29.12c-2.71-1.07-5.22-1.58-7.66-1.58c-7.1,0-12.12,4.52-16.98,8.9
		c-0.85,0.76-1.7,1.53-2.56,2.27c-7.44,6.47-14.39,14.05-21.12,21.39c-3.62,3.95-7.36,8.03-11.18,11.94
		c-3.52,3.8-7.13,7.62-10.62,11.32c-3.49,3.69-7.09,7.51-10.64,11.33c-0.5-3.62-1.05-7.26-1.58-10.79
		c-0.57-3.79-1.16-7.72-1.69-11.57c-0.36-3.75-0.58-8.19-0.82-12.9c-0.73-14.38-1.54-30.67-6.45-39.81l-0.14-0.26l-0.29-0.09
		c-1.77-0.54-3.62-0.81-5.52-0.81c-3.52,0-6.38,0.91-8.16,1.67c-2.37,0.99-3.43,2.95-4.23,4.91l-0.04,0.11
		c-4.24,19.2-6.86,26.12-10.18,34.89c-1.18,3.11-2.51,6.63-4.03,11.01c-10.35,22-18.53,39.39-29.52,63.12l0.02,0.01
		c-0.37,0.71-0.91,2.58-2.35,7.56c-1.31,6.57-2.79,22.68-0.68,24.01v0c1.18,0.72,3.06,1.16,4.89,1.16c2.68,0,4.61-0.94,5.31-2.63
		c7.97-23.89,18.04-44.72,28.71-66.77c4.68-9.67,9.51-19.66,14.1-29.85c-0.98,32.79,1.6,52.22,7.69,57.77
		c2.37,2.11,6.44,2.86,9.46,2.86c2.52,0,4.58-0.49,5.82-1.37l0.18-0.13l0.08-0.21c3.93-10.64,9.8-17.83,13.3-22.13
		c1.05-1.28,1.87-2.3,2.45-3.14c2.62-3.85,28.4-30.51,38.06-40.5c0,0,0.01-0.01,0.01-0.01c-2.08,7.17-4.17,14.34-6.26,21.51
		l-0.28,0.96c-11.32,39.07-12.97,61.69-4.88,67.25c2.24,1.48,4.31,2.17,6.53,2.17c0.96,0,1.97-0.12,3.25-0.39
		c6.89-1.35,12.5-10.55,17.45-18.66c1.41-2.32,2.75-4.5,3.99-6.28c11.66-17.18,23.11-29.31,34.07-36.09
		c-3.66,11.87-7.2,23.78-10.64,35.36l-9.08,43.33l-0.17,1.42c-0.61,5.21-1.43,12.28-3.81,16.48c-14.67-1.56-29.75-4.4-44.34-7.14
		c-21.99-4.13-42.76-8.04-62.48-8.04c-7.41,0-14.06,0.55-20.35,1.68c-1.27,0.23-2.55,0.34-3.93,0.34c-2,0-3.9-0.24-5.73-0.46
		c-1.74-0.22-3.39-0.42-5.06-0.42c-2.92,0-5.35,0.68-7.63,2.15c-0.72,0.29-0.98,1.02-0.76,2.16l0,0.03l-0.11,0.38l0.46,0.28
		c12.25,7.55,28.78,9.21,42.06,10.55c1.12,0.11,2.22,0.23,3.25,0.33c26.93,4.25,54.29,8.46,79.88,12.37
		c3.74,0.44,8.46,1.64,13.47,2.92c7.44,1.89,15.13,3.85,21.35,3.85c3.93,0,6.82-0.79,8.81-2.41c3.67-2.92,4.23-10.12,4.63-15.38
		l0.06-0.76c2.07-13.13,4.08-26.56,6.03-39.54l0.93-6.22c2.58-18.98,8.54-39.14,14.29-58.64l0.8-2.71c0.61-1.98,1.43-4.1,2.29-6.34
		C297.68,55.27,300.71,47.43,296.52,43.21" fill="#fff" />
	<path d="M256.28,247.12c-0.05-0.1-0.11-0.19-0.17-0.28c-0.55-0.85-1.6-0.8-2.49-1.01c-1.03-0.24-1.4-0.92-1.74-1.87
		c-0.9-2.46-1.62-5.21-1.87-7.81c-0.29-2.95-0.26-5.85-0.89-8.77c-0.3-1.37-0.62-2.74-0.74-4.14c-0.12-1.37-0.23-2.62-0.96-3.83
		c-0.67-1.24-1.65-1.98-2.95-2.48c-0.03-0.02-0.06-0.03-0.08-0.04c-0.01-0.01-0.03-0.01-0.05-0.01c-0.14-0.05-0.3-0.1-0.45-0.15
		c-0.14-0.07-0.28-0.13-0.3-0.16c-0.01-0.01-0.22-0.1-0.48-0.15c-0.05-0.01-0.1-0.02-0.15-0.03c-0.01,0-0.03-0.01-0.05-0.01
		c-0.14-0.03-0.29-0.03-0.44-0.02c-0.12,0-0.23,0.02-0.3,0.03c-0.16-0.01-0.32-0.01-0.48-0.01c-0.86,0-1.51,0.17-2.21,0.67
		c-1.07,0.62-1.98,1.59-2.59,2.63c-0.16,0.13-0.33,0.28-0.35,0.3c-0.33,0.23-0.61,0.6-0.86,0.99c-0.29,0.3-0.57,0.62-0.84,0.93
		c-0.17,0.2-0.23,0.62-0.42,0.75c-0.04,0.03-0.75,0.91-0.75,0.95c-0.04,0.22-0.41,0.35-0.5,0.56c-0.09,0.24-0.21,0.48-0.36,0.69
		c-0.08,0.1-0.14,0.2-0.19,0.28c-0.05,0.4-0.82,1.14-1.03,1.51c-0.37,0.35-0.74,0.68-0.97,0.94c-0.25,0.24-0.49,0.49-0.72,0.75
		c-0.63,0.7-1.37,1.62-1.47,2.28c-0.07,0.15-0.17,0.35-0.29,0.57c-0.35,0.32-0.64,1.06-1.08,1.27c0,0-0.29,0.45-0.3,0.47
		c-0.04,0.34-0.61,0.86-0.81,1.11c-0.5,0.6-1.05,1.3-1.68,1.77c-2.26,1.54-3.25-5.76-3.58-7.01c-0.97-3.68-2.07-7.46-3.79-10.86
		c-0.64-1.18-1.69-2.13-2.88-2.74l0.01-0.02c-0.01,0-0.02-0.01-0.03-0.01c-0.32-0.16-0.65-0.29-0.98-0.39c0,0-0.01,0-0.01,0
		c-0.07-0.02-0.13-0.05-0.2-0.08c-0.16-0.05-0.33-0.1-0.5-0.13c-0.02,0.01-0.04,0.01-0.06,0.01c-0.02,0-0.04-0.02-0.07-0.03
		c-0.05-0.01-0.1-0.02-0.15-0.03c-0.03,0-0.06,0-0.09,0c-0.13-0.02-0.26-0.05-0.4-0.06c-0.02,0-0.04-0.01-0.07-0.02
		c-0.04,0-0.08-0.01-0.12-0.01c-0.03,0-0.05,0-0.08,0.01c-0.1-0.01-0.21-0.01-0.31-0.02c-0.01,0-0.01,0-0.02,0
		c-0.21-0.01-0.42-0.02-0.63-0.01c-0.03,0-0.06,0-0.09,0.01c-0.14,0.03-0.28,0.04-0.42,0.05c-0.01,0-0.02,0-0.03,0
		c-0.05,0.01-0.1,0.01-0.15,0.02l-0.01,0.01c-0.14,0.05-0.29,0.05-0.43,0.09c-0.05,0.01-0.1,0.03-0.15,0.06
		c-0.06,0.03-0.12,0.07-0.18,0.09c-0.36,0.15-0.67,0.25-0.98,0.5c-0.51,0.32-1.02,0.71-1.26,1.1c-0.01,0.02-0.02,0.03-0.03,0.05
		c-0.05,0.08-0.08,0.17-0.12,0.26c-2.19,3.35-4.61,6.51-6.12,10.27c-1,2.71-2.14,3.21-2.38,3.08c-0.28-0.22-0.27-1.02-0.28-1.32
		c-0.03-0.92,0.12-1.83,0.12-2.75c0-1.29-0.15-2.62-0.38-3.88c-0.22-1.23-0.56-2.65-1.5-3.54c-1.07-1.01-2.97-1.19-4.37-1.16
		c-0.23-0.06-0.5-0.08-0.94-0.08c-0.03,0-0.54,0.07-0.58,0.07c-0.51,0.15-1.14,0.32-1.48,0.78c-0.67,0.46-1.28,1.03-1.45,1.56
		c-0.01,0.01-0.02,0.03-0.04,0.05c-0.03,0.05-0.06,0.09-0.07,0.14c0,0.01-0.01,0.02-0.01,0.02c-0.06,0.12-0.05,0.28-0.08,0.41
		c-1.33,2.3,0.24,4.23,0.58,6.56c-0.01,0.16,0,0.32,0.02,0.48c0,0.13,0.03,0.25,0.07,0.37c0.06,0.99,0.02,1.98-0.05,3.01l0,0
		c0,0.69-0.04,1.34-0.14,2.01c-0.12,1.04-0.03,2.09-0.02,3.13c0.02,0.93,0.24,1.99,0.17,2.89l0.01,0c0.07,2.41,0.11,4.83,0.03,7.25
		c-0.04,0.13-0.06,0.26-0.06,0.39c-0.02,0.1,0,0.19,0.04,0.28c-0.04,1.24-0.07,2.49-0.03,3.73c-0.03,0.28,0.05,0.57-0.01,0.84
		c0.01,0.18,0.03,0.36,0.05,0.54c0.01,0.02,0.03,0.04,0.03,0.05c0,0.02,0,0.05-0.01,0.08c0.01,0.05,0.02,0.1,0.03,0.15
		c0.07,0.18,0.11,0.35,0.12,0.54v0.02c0.01,0.08,0.04,0.16,0.08,0.22c0.29,1.31,0.93,2.63,2.23,3.19c0.03,0.02,0.06,0.04,0.1,0.05
		c0.02,0.01,0.07,0.03,0.12,0.04c0.06,0.02,0.11,0.04,0.16,0.06c0.1,0.04,0.18,0.09,0.3,0.12c0.08,0.04,0.17,0.1,0.24,0.16
		c0.4,0.21,1.05,0.09,1.5,0.13c0.38,0,0.81,0.2,1.2,0.24c0.38,0.11,0.79,0.23,1.2,0.23c0.29-0.03,0.6-0.12,0.9-0.23
		c0.71-0.21,1.27-0.5,1.73-0.85c1.58-1.08,1.79-2.78,2.14-4.54c0.21-0.36,0.39-0.66,0.51-1.06c0.08-0.21,0.14-0.42,0.19-0.65
		c0.12-0.22,0.11-0.46,0.23-0.68l0.07-0.12c0.05-0.08,0.1-0.16,0.14-0.24c0.02-0.03,0.07-0.4,0.09-0.43l0.07-0.12
		c0.17-0.29,0.27-0.9,0.4-1.23v0c0.01-0.03,0.07-0.09,0.07-0.12c0-0.03,0-0.28,0.02-0.31l0.21-0.37c0.02-0.04,0.05-0.08,0.07-0.12
		c0.14-0.31,0.3-0.6,0.33-0.95c0-0.01,0.21-0.52,0.21-0.52c0.16-0.25,0.16-0.55,0.31-0.8c0.12-0.26,0.3-0.57,0.31-0.85
		c0.29-0.77,0.58-1.56,0.77-2.34c0.05-0.13,0.07-0.23,0.09-0.36c0.12-0.39,0.27-0.78,0.42-1.16c1.04-1.79,2.21-3.46,2.89-5.43
		c0.53-1.52,1.06-3.76,2.39-4.82c1.89-1.61,3.63,8.34,3.86,9.4c0.46,2.09,1.4,4.04,1.83,6.12c0.36,1.73,0.31,3.71,1.36,5.22
		c0.08,0.15,0.18,0.28,0.3,0.4c0.01,0.02,0.03,0.04,0.04,0.06c0.02,0.03,0.03,0.05,0.05,0.07c0,0,0,0.01,0,0.01
		c0.04,0.05,0.09,0.11,0.14,0.16c0.14,0.17,0.3,0.33,0.46,0.47c0.13,0.13,0.27,0.27,0.4,0.4c0.04,0.03,0.1,0.04,0.16,0.06
		c0.02,0.01,0.04,0.03,0.06,0.04c0.34,0.22,0.77,0.32,1.1,0.55c0.16,0.07,0.32,0.13,0.49,0.19c0.04-0.01,0.09,0.01,0.12,0.04
		c0.05,0.02,0.1,0.03,0.15,0.04c0.2,0.03,0.35,0.07,0.53,0.14c0,0,0.01,0,0.02,0.01c0.05,0.02,0.1,0.03,0.14,0.03
		c0.06-0.01,0.12,0,0.18,0.01c0.28,0.07,0.55,0.13,0.84,0.17c0.03,0,0.06,0.01,0.09,0.01c0.11,0,0.22,0,0.33,0.01
		c0.05,0.01,0.09,0.02,0.13,0.03c0.05,0.01,0.1,0.01,0.15,0.01c0.22-0.02,0.43,0.03,0.64-0.02c0.61-0.11,1.16-0.13,1.73-0.41
		c0.26-0.14,0.72-0.44,0.98-0.5c0.17-0.18,0.32-0.36,0.45-0.57c0.88-1.33,1.05-3,1.86-4.38c0.94-1.6,2-3.14,3.06-4.67
		c2.06-2.96,4.14-6.17,6.62-8.79c0.27-0.26,1.02-1.26,1.4-0.78c0.51,0.65,0.66,1.69,0.83,2.47c0.43,1.92,0.65,3.9,1.02,5.84
		c0.67,3.58,1.72,7.05,3.8,10.08c0,0.03,0.02,0.06,0.04,0.07c0.06,0.11,0.12,0.22,0.15,0.35c0.24,0.45,0.77,1.52,1.32,1.7
		c0.05,0.05,0.11,0.09,0.17,0.12c0.01,0.02,0.18,0.06,0.18,0.07c0.3,0.3,0.61,0.56,0.93,0.74c0.06,0.04,0.11,0.09,0.12,0.09
		c0.02,0.01,0.08,0.03,0.14,0.04c1.33,0.62,2.66,0.91,3.91,0.8c2.49,0.03,4.86-2.32,4.99-4.82
		C256.86,248.92,256.7,247.97,256.28,247.12C256.23,247.01,256.7,247.97,256.28,247.12" fill="#fff" />
	<path d="M73.79,246.95c-1.41-3-1.89-6.3-2.32-9.55c-0.41-3.1-0.82-6.2-1.32-9.28c-1.01-6.31-2.25-12.82-5.01-18.64
		c-0.04-0.09-0.1-0.19-0.14-0.27c-0.1-0.2-0.18-0.37-0.33-0.54c-0.04-0.06-0.3-0.38-0.35-0.43c-0.93-1.05-2.32-1.8-3.63-2.09
		c-0.07-0.03-0.15-0.05-0.23-0.05l-0.03-0.01c-0.71-0.15-1.45-0.15-2.15,0.05c-0.14-0.01-0.25,0.02-0.35,0.1
		c-0.34,0.06-0.8,0.13-1.12,0.31c-0.1,0.04-0.19,0.11-0.26,0.19c-0.78,0.63-1.21,1.64-1.57,2.55c-0.52,1.3-0.99,2.61-1.45,3.93
		c-0.94,2.67-1.84,5.37-2.87,8.02l-0.14,0.35c-0.76,1.9-1.53,3.92-2.4,5.81c-0.17,0.29-0.39,0.82-0.45,0.97
		c-0.01,0.02-0.02,0.05-0.03,0.07c-0.04,0.06-0.08,0.15-0.11,0.23c-0.05,0.11-0.11,0.22-0.16,0.34c0,0,0,0,0,0l-0.08,0.1
		c-0.13,0.17-0.17,0.44-0.3,0.59l-0.08,0.11c-0.02,0.02-0.04,0.16-0.05,0.23c-0.02,0.04-0.09,0.14-0.08,0.15
		c0.01,0.16-0.21,0.47-0.3,0.59c-0.02,0.03-0.06,0.07-0.08,0.11c0,0-0.08,0.1-0.08,0.11c-0.02,0.05-0.03,0.1-0.02,0.16l-0.11,0.22
		l-0.16,0.21c-0.22,0.27-0.42,0.58-0.5,0.93c0,0.01-0.25,0.46-0.25,0.46c-0.17,0.21-0.21,0.49-0.37,0.69
		c-0.15,0.24-0.35,0.5-0.39,0.79c-0.04,0.1-0.08,0.2-0.12,0.29c-0.15,0.33-0.32,0.66-0.49,0.98l-0.02,0.05
		c-0.77,1.5-1.72,2.95-2.4,4.48c-0.86,1.52-1.8,3.03-2.53,3.91c-0.29,0.29-0.72,0.77-1.18,0.67c-0.58-0.65-0.99-1.29-1.32-1.93
		c-1.55-4.24-2.54-8.74-3.75-13.08c-1.22-4.37-2.41-8.76-3.91-13.05c-0.02-0.06-0.03-0.09-0.03-0.1c0-0.02,0-0.22-0.06-0.45
		c-0.28-1.8-1.47-3.85-2.07-5.48c-0.22-0.13-0.33-0.95-0.5-1.21c-0.02-0.03-0.13-0.47-0.19-0.57c-0.12-0.19-0.26-0.36-0.38-0.56
		c-0.01-0.02-0.05-0.17-0.15-0.32c-0.16-0.35-0.34-0.75-0.6-0.99c-0.24-0.25-0.29-0.79-0.54-1.09c-0.08-0.13-0.15-0.28-0.21-0.43
		c-0.12-0.53-0.33-0.84-0.69-1.22c-0.02-0.04-0.04-0.07-0.06-0.1c-0.1-0.29-0.29-0.58-0.5-0.83c-0.03-0.04-0.14-0.17-0.19-0.21
		c-0.01-0.01-0.07-0.09-0.08-0.11c-0.08-0.2-0.34-0.91-0.92-1.26h0c-0.18-0.17-0.37-0.32-0.56-0.45c-0.25-0.26-0.5-0.33-0.81-0.45
		c-0.12-0.18-0.67-0.33-0.88-0.41v0c-0.8-0.52-1.86-0.82-2.81-0.6c-0.17,0.03-0.24,0.05-0.38,0.13c-0.08-0.01-0.15,0.01-0.22,0.04
		c-0.09,0.03-0.17,0.07-0.25,0.13c-0.04,0.01-0.07,0.02-0.11,0.04c-0.68,0.16-1.32,0.44-1.86,0.85c-0.04,0.03-0.16,0.11-0.2,0.16
		c-0.03,0.03-0.07,0.06-0.1,0.09c-0.09,0.05-0.29,0.13-0.31,0.15c-0.02,0.01-0.07,0.05-0.1,0.09c-0.22,0.21-0.23,0.6-0.43,0.8
		c-0.21,0.22-0.26,0.54-0.41,0.8c-0.16,0.22-0.25,0.58-0.28,0.96c-0.18,0.34-0.08,0.91-0.02,1.28c0,0.03,0.12,0.44,0.1,0.91
		c-0.08,0.35-0.18,0.71-0.23,1.06c-0.12,0.46-0.23,0.93-0.35,1.39c-0.05,0.19,0.01,0.88-0.06,0.94c-0.02,0.02-0.18,0.36-0.18,0.36
		c-0.45,0.28-0.49,1.03-0.47,1.8c-0.08,0.38,0,1.9-0.25,2.12c-0.03,0.03-0.5,1.25-0.59,2.19c-0.07,0.66-0.2,1.27-0.3,1.92
		c-0.04,0.33,0.01,0.66,0,0.72c0,0.01-0.18,0.48-0.18,0.54c-0.2,0.81-0.25,1.67-0.36,2.5c-0.29,1.27-0.33,2.47-0.36,2.5
		c-0.04,0.04,0,0.41-0.01,0.49c-0.02,0.14-0.04,0.27-0.06,0.41c-0.2,1.07-0.32,2.16-0.47,3.23c-0.23,1.15-0.43,2.25-0.47,3.42
		c-0.16,1.16-0.31,2.32-0.46,3.47c-0.05,0.32-0.13,0.78-0.13,0.78c-0.11,0.24-0.33,1.47-0.33,1.53c-0.06,0.73-0.15,0.71-0.2,1.33
		c0,0,0.03,0.7-0.01,1.07c-0.08,0.4-0.29,0.75-0.33,1.18c-0.05,0.54-0.02,1.09-0.07,1.63c-0.03,0.21-0.05,0.39-0.06,0.5
		c-0.15,1.14-0.53,2.18-0.58,3.34c-0.04,0.25-0.09,0.5-0.12,0.75c-0.27,0.75-0.2,1.47-0.21,2.25c-0.02,0.14-0.05,0.28-0.08,0.41l0,0
		c-0.04,0.12-0.06,0.26-0.08,0.39c-0.09,0.13-0.12,0.37-0.24,0.46c-0.06,0.25-0.12,0.58-0.08,0.85c0,0.04,0.04,0.2,0.06,0.24
		c-0.04,0.41-0.13,0.83-0.14,1.24c0,0-0.02,0.1-0.03,0.1c-0.07,0.48-0.14,0.97,0.13,1.4c0.03,0.15,0.08,0.29,0.12,0.44
		c0.02,0.16,0.05,0.35,0.16,0.46c0.23,0.58,0.54,1.1,0.9,1.45c0.03,0.03,0.17,0.35,0.19,0.37c0.12,0.12,0.25,0.25,0.37,0.37
		c0.3,0.59,1.57,0.8,2.11,0.86c0,0,0.77,0.07,1.17,0.06c0.71-0.04,1.63-0.05,2.28-0.38c0.7-0.21,1.46-0.52,1.98-1.06
		c0.1-0.06,0.18-0.15,0.21-0.25c1.69-2.11,1.21-5.7,1.15-8.22c-0.05-1.97-0.12-3.95-0.01-5.91c0.09-1.54,0.42-3.02,0.6-4.54
		c0.45-3.62,0.3-7.28,0.62-10.91c0.16-1.84,0.46-3.67,0.81-5.49c0.24-1.29,0.15-3.34,1.17-4.32c0.08-0.07,0.25-0.25,0.52-0.3
		c0.44,0.03,0.91,1.06,1.08,1.39c0.37,0.7,0.67,1.44,0.95,2.18c0.64,1.7,1.2,3.44,1.74,5.18c1.05,3.4,1.98,6.83,2.88,10.28
		c1.28,4.85,2.66,9.64,4.09,14.44c0.69,2.73,0.71,6.25,3.39,7.82c1.13,0.83,3.04,1.57,4.47,1.27c0.9-0.11,1.69-0.5,2.39-1.07
		c0.95-0.53,1.56-1.5,2.13-2.39c0.72-1.1,1.42-2.22,2.08-3.36c1.45-2.47,2.77-5.02,4.28-7.45c0.77-1.42,1.36-2.94,2.03-4.41
		c0.71-1.56,1.5-3.05,2.12-4.66c1.46-3.15,2.92-6.28,4.16-9.52c0.29-0.66,0.59-1.33,0.92-1.97c0.33-0.65,0.43-1.39,0.79-2.03
		c0.1-0.16,0.2-0.28,0.3-0.38c0.17-0.15,0.36-0.25,0.62-0.26c0.81,0.27,1.01,2.15,1.12,2.83c0.17,1.09,0.41,2.15,0.61,3.23
		c0.27,2.36,0.44,4.72,0.77,7.08c0.44,3.08,0.98,6.15,1.44,9.23c0.02,1.66,0.6,3.42,1.25,4.95c0.06,0.09,0.12,0.2,0.18,0.32
		c0.1,0.27,0.22,0.52,0.37,0.76c0.39,0.84,0.83,1.8,1.45,2.12c0.13,0.22,0.39,0.29,0.64,0.36c0.71,0.25,1.29,0.62,2.05,0.75
		c1.11,0.19,1.94-0.03,3.03-0.17C75,252.34,75.1,249.48,73.79,246.95C72.72,244.68,73.79,246.95,73.79,246.95" fill="#fff" />
	<path d="M97.71,233.82c-0.81,1.63-1.7,3.22-2.71,4.74c-0.55,0.83-1.13,1.64-1.72,2.44c-0.46,0.66-0.78,1.46-1.34,2.07
		c-0.32,0.33-0.89,0.8-1.4,0.77c-0.03-0.01-0.07-0.01-0.1-0.03c-0.4-0.38-0.12-1.68-0.08-2.17c0.08-0.93,0.25-1.85,0.45-2.76
		c0.36-1.58,0.84-3.15,1.44-4.66c0.43-1.1,0.85-2.21,1.35-3.28c0.57-1.24,1.09-3.34,2.36-4.06c0.04,0.01,0.08-0.01,0.1-0.05
		c1.43-0.69,3.15,1.01,3.24,2.38c0.1,1.51-0.82,2.96-1.44,4.27c0.03-0.07,0.07-0.14,0.1-0.21C97.89,233.46,97.8,233.64,97.71,233.82
		C97.49,234.28,97.77,233.72,97.71,233.82 M115.55,250.47c-0.13-1.98-0.73-3.88-1.32-5.75c-0.3-0.95-0.6-1.9-0.84-2.86
		c-0.23-0.94-0.24-1.96-0.5-2.88c-0.41-3.77-1.03-7.45-2.08-11.09c-0.11-1.22-0.23-2.17-0.83-3.25c-0.16-0.87-0.83-1.58-1.49-2.12
		c-0.03-0.03-0.07-0.03-0.11-0.05c-0.04-0.07-0.09-0.12-0.16-0.16c-0.05-0.05-0.1-0.09-0.19-0.14c-0.15-0.07-0.3-0.15-0.44-0.24
		c-0.06-0.09-0.14-0.14-0.24-0.17c-0.12-0.13-0.26-0.23-0.43-0.29c-0.03-0.03-0.05-0.08-0.08-0.11c-0.02-0.03-0.04-0.07-0.05-0.07
		c-0.06-0.06-0.13-0.12-0.2-0.17c-0.12-0.14-0.24-0.27-0.36-0.42c0,0-0.01,0-0.01-0.01c-0.08-0.1-0.16-0.2-0.25-0.3
		c0,0-0.03-0.06-0.05-0.09c-0.05-0.1-0.11-0.18-0.19-0.26c-0.02-0.03-0.04-0.06-0.06-0.1c-0.01-0.02-0.01-0.03-0.02-0.05
		c-0.01-0.01-0.02-0.02-0.03-0.03c-0.07-0.11-0.08-0.21-0.14-0.33c-0.07-0.26-0.31-0.64-0.44-0.89c-0.02-0.04-0.05-0.07-0.06-0.11
		c-0.01-0.12-0.04-0.18-0.06-0.3c-0.09-0.19-0.13-0.4-0.22-0.59c-0.13-0.38-0.28-0.78-0.55-1.01c-0.05-0.04-0.08-0.09-0.12-0.14
		c-0.06-0.12-0.12-0.19-0.21-0.29c-0.06-0.06-0.12-0.12-0.2-0.19c-0.64-0.59-1.54-1.02-2.4-1.32c-0.06-0.03-0.13-0.05-0.2-0.07
		c-0.1-0.03-0.21-0.06-0.31-0.1c-0.44-0.21-0.99-0.32-1.47-0.41c-0.06-0.01-0.11,0-0.17-0.01c-0.38-0.11-0.97-0.07-1.33,0.08
		c-0.13,0.01-0.24,0.06-0.34,0.14c-0.61,0.2-1.21,0.51-1.8,0.8c-0.38,0.17-0.78,0.38-1.17,0.53c-0.06,0.01-0.12,0.03-0.17,0.06
		c-0.62,0.29-1.3,0.58-1.82,1.04c-0.02,0.02-0.04,0.06-0.06,0.08c-0.46,0.38-0.93,0.7-1.22,1.22c-0.46,0.53-0.9,1.08-1.32,1.64
		c-0.22,0.22-0.36,0.49-0.55,0.74c-2.07,3.11-3.63,6.56-4.84,10.09c-0.52,0.91-0.81,1.98-0.96,3.02c-0.39,1.35-0.95,2.8-1.12,4.19
		c-0.02,0.08-0.04,0.16-0.06,0.24c-0.68,2.18-1.08,4.55-1.36,6.82c-0.29,2.36-0.4,4.86,0.17,7.19c0.09,0.49,0.25,0.94,0.46,1.39
		c0.56,1.33,1.67,2.55,3.14,2.87c0.16,0.07,0.31,0.13,0.47,0.18c0.14,0.1,0.25,0.11,0.41,0.13c0.89,0.24,1.84,0.33,2.77,0.27
		c0.65,0.01,1.33-0.16,1.95-0.35c0.01,0,0.11-0.04,0.12-0.05c1.02-0.33,1.98-0.99,2.71-1.76c0.02-0.02,0.11-0.12,0.13-0.14
		c0.38-0.42,0.74-0.85,1.08-1.31c0.63-0.79,1.23-1.6,1.81-2.43c0.25-0.28,0.45-0.54,0.6-0.89c0.58-0.87,1.19-1.74,1.71-2.65
		c0.77-1.22,1.56-2.46,2.25-3.73c0.54-1,1.04-2.42,1.99-3.11c0.24-0.14,0.44-0.21,0.71-0.23c0.12,0.06,0.24,0.21,0.35,0.41
		c0.48,1.38,0.84,2.84,1.14,4.28c0.17,0.82,0.54,1.85,0.54,2.68c0,0.86,0.81,1.48,1.21,2.15c1.06,1.73,2.66,3.96,4.78,4.47
		c1.07,0.37,2.16,0.26,3.13-0.68c0.1-0.09,0.19-0.17,0.27-0.27c0.02-0.08,0.07-0.14,0.14-0.19c0.06-0.09,0.11-0.17,0.16-0.26
		c0-0.01,0.13-0.24,0.16-0.38C115.56,251.8,115.59,251.1,115.55,250.47C115.29,246.63,115.54,250.34,115.55,250.47" fill="#fff" />
	<path d="M379.38,246.45c-0.02-0.08-0.11-0.13-0.14-0.21c-0.19-0.17-0.14-0.18-0.43-0.29
		c-0.75-0.39-1.71-0.34-2.62-0.39c-2.31-0.21-3.38-1.9-4.17-3.93c-0.92-2.38-1.49-4.91-2.21-7.35c-0.31-1.48-0.47-2.95-1.17-4.31
		c-0.64-1.23-1.21-2.5-1.83-3.74c0-0.04,0.01-0.08,0.01-0.12c-0.06-0.12-0.12-0.23-0.18-0.34c-0.14-0.16-0.24-0.34-0.35-0.52
		c0,0,0-0.01-0.01-0.01c-0.22-0.28-0.47-0.55-0.73-0.79c-0.18-0.18-0.36-0.37-0.54-0.56c-0.05-0.02-0.11-0.03-0.17-0.03
		c-0.04-0.01-0.08,0-0.12,0.01c-0.02-0.01-0.03-0.13-0.05-0.14c-0.19-0.12-0.38-0.23-0.58-0.34c-0.14-0.1-0.3-0.17-0.46-0.22
		c-0.12-0.04-0.23-0.09-0.33-0.16c-0.2-0.09-0.41-0.18-0.63-0.26c-0.06,0-0.11-0.01-0.16-0.06c-0.06-0.02-0.13-0.04-0.19-0.07
		c-0.26-0.05-0.46-0.11-0.7-0.21c0,0-0.01-0.01-0.02-0.01c-0.05-0.02-0.1-0.03-0.15-0.04c-0.15-0.04-0.31-0.07-0.47-0.1
		c-0.29-0.1-0.61-0.15-0.91-0.21c-0.04,0-0.07,0.03-0.11,0.02c-0.04,0-0.08-0.04-0.12-0.05c-0.13-0.02-0.19-0.01-0.29-0.02
		c-0.07-0.02-0.14-0.03-0.21-0.06c-0.07-0.01-0.14-0.02-0.2-0.02c-1.41,0.02-2.63-0.03-3.93,0.61c-0.2,0.05-0.46,0.08-0.64,0.19
		c-0.02,0.01-0.17,0.09-0.19,0.1c-0.08,0.05-0.16,0.11-0.23,0.17c-1.16,0.72-2.16,1.58-3.07,2.53c-1.75,1.69-3.15,3.52-4.49,5.4
		c-0.93,1.09-1.92,2.12-3.07,3c-0.65,0.22-0.57-0.3-0.57-0.3c-0.01-0.01-0.03-0.07-0.05-0.12c-0.02-0.3-0.02-0.61-0.03-0.92
		c0.05-0.31,0.12-0.6,0.08-0.92c0.02-0.52,0.01-1.03,0.01-1.55c0.08-0.77-0.1-1.5,0.03-2.3c0-0.01,0.01-0.08,0.02-0.19
		c0-0.02,0-0.03,0-0.05c0.01-0.22-0.09-0.44-0.09-0.65c0.01-0.22,0.1-0.64,0.1-0.64c0.03-0.37-0.03-0.37,0-0.81
		c0-0.03-0.01-0.8-0.06-0.95c-0.01-0.95,0.04-1.9,0.07-2.84c0.07-0.58,0.07-1.16,0.02-1.74c0-0.26,0-0.52-0.02-0.78
		c0-0.01,0-0.07-0.01-0.14c0-0.18,0.01-0.37,0.01-0.55c0.01-0.04,0.02-0.08,0.02-0.12c0.01-0.24,0.01-0.46,0-0.62
		c0-0.01,0.01-0.19,0.01-0.21c0.08-0.57,0.1-1.17,0.06-1.75c0.01-0.51,0.07-1.03,0.02-1.54c0-0.01-0.01-0.1-0.03-0.18
		c0-0.11,0-0.22,0-0.33c0.03-0.09,0.04-0.18,0.03-0.26c-0.01-0.1-0.02-0.19-0.03-0.28c0-0.14,0-0.29,0-0.43
		c0.01-0.21,0.03-0.46,0.03-0.46c0.02-0.31,0.04-1.08-0.15-1.37c-0.13-0.16,0.07-1.09,0.05-1.32c0.08-0.46,0.12-0.9-0.11-1.1
		c0-0.21,0.02-0.45,0-0.66c0,0,0-0.01,0-0.01c0-0.45-0.02-0.91-0.12-1.32c-0.08-0.41,0.13-0.83,0.14-0.86
		c0.08-0.23,0.14-0.5,0.12-0.75c0,0-0.01-0.02-0.01-0.03c-0.01-0.11-0.03-0.23-0.05-0.34c0.01-0.12-0.01-0.21-0.03-0.26
		c-0.07-0.46,0.05-0.85-0.21-1.28c-0.04-0.15-0.09-0.3-0.16-0.47c0-0.01-0.01-0.02-0.02-0.02c-0.04-0.04-0.08-0.07-0.12-0.11
		c-0.63-1.22-1.57-1.87-2.89-2.18c-0.68,0-1.36-0.09-2.04-0.07c-0.41,0.02-1.06,0.28-1.5,0.11c0,0-0.01,0-0.01,0
		c-0.61,0.19-1.16,0.47-1.52,1.02c-1.99,2.36-1.05,7.64-0.84,10.05c0.12,1.4,0.16,2.82,0.16,4.24c-0.42,3.01-0.17,6.01-0.26,9.05
		c0,0.01,0,0.02,0,0.02c-0.04,0.23-0.03,0.65-0.03,0.89c-0.01,0.28-0.02,0.55-0.04,0.83l-0.01,0.02c-0.01,0.04-0.02,0.07-0.03,0.11
		c-0.02,0.05-0.03,0.11-0.03,0.16c-0.01,0.09,0,0.19,0.03,0.28c0,0.01,0,0.02,0,0.03l-0.03,0.11c0.01,0.08,0.03,0.16,0.04,0.23
		c0.03,0.09-0.02,0.44-0.02,0.51c-0.02,0.11-0.04,0.21-0.04,0.3v0c-0.01,0.07,0,0.14,0.02,0.2c0.01,0.05,0,0.11,0.01,0.16
		l-0.08,0.33c-0.01,0.03-0.02,0.07-0.02,0.1c0,0,0,0.01,0,0.01c-0.01,0.04-0.02,0.08-0.03,0.11c-0.01,0.03-0.06,0.32-0.02,0.6
		c-0.01,0.21-0.03,0.43-0.04,0.64c0,0.01,0,0.01-0.01,0.02c0,0.04-0.02,0.08-0.03,0.11c0,0,0,0.02,0,0.04
		c-0.01,0.08-0.01,0.16,0.01,0.24c-0.03,0.26-0.08,0.59-0.05,0.85c0.01,0.1,0.03,0.19,0.06,0.29c-0.18,0.57-0.09,1.34-0.12,1.94
		c0,0.01-0.01,0.03-0.01,0.04c-0.01,0.02-0.02,0.04-0.02,0.08c0,0.01,0.01,0.01,0.02,0.03c0,0.35,0,0.71,0,1.06
		c0,0.14,0,0.27,0,0.33c0,0,0,0.03,0,0.07c0,0.27,0,0.55,0.01,0.82c-0.02,0.08,0,0.18,0,0.26c0.06,2.94,0.35,5.95,0.08,8.88
		c-0.04,0.28-0.08,0.57-0.13,0.84c-0.02,0.06-0.03,0.12-0.05,0.18c-0.01,0.15-0.03,0.29-0.06,0.43c0,0.01-0.01,0.02-0.01,0.03
		c0.09,0.79,0.04,1.57,0.12,2.36c0,0.13,0,0.26-0.02,0.39c0.03,0.13,0.06,0.25,0.09,0.38c0.07,0.15,0.12,0.3,0.16,0.47
		c0.02,0.04,0.03,0.08,0.04,0.12c0.16,0.42,0.4,0.8,0.61,1.2c0.92,0.93,2.19,1.58,3.41,2.02l-0.01,0.02c0.01,0,0.01,0,0.02,0.01
		c0.31,0.12,0.62,0.19,0.94,0.27c0.05,0.01,0.09,0.03,0.12,0.04c0.15,0.03,0.29,0.05,0.44,0.07c0.02-0.01,0.03-0.01,0.04-0.01
		c0.02,0,0.04,0.01,0.06,0.02c0.02,0,0.03,0,0.05,0c0.37-0.06,0.76-0.03,1.13-0.01c0.07-0.01,0.14-0.02,0.21-0.02
		c0.01,0,0.02,0,0.03,0c0.05,0,0.11,0,0.17-0.01c0.03,0,0.05-0.01,0.08-0.01c0.02-0.01,0.04-0.02,0.06-0.02
		c0.07-0.01,0.09-0.03,0.12-0.04c0.03-0.01,0.06-0.01,0.09-0.02c0.03,0,0.07,0.01,0.1,0.01c0.04-0.01,0.08-0.02,0.12-0.03
		c0.04-0.02,0.1-0.04,0.14-0.06c0.13-0.01,0.24-0.05,0.35-0.12c0.04-0.03,0.09-0.06,0.13-0.09c0.03-0.01,0.07-0.03,0.1-0.04
		c0.01-0.01,0.02-0.02,0.04-0.03c2.14-1.06,2.32-3.53,3.08-5.53c0.84-2.23,2.55-3.99,3.68-6.05c0.58-1.05,1.17-1.93,1.97-2.83
		c0.93-1.05,1.65-2.29,2.46-3.44c1.38-1.95,3.1-3.78,5.48-4.43c0.19,0.01,0.38,0.11,0.57,0.29c0.06,0.07,0.11,0.12,0.16,0.16
		c0.02,0.03,0.05,0.06,0.07,0.09c0.3,0.41,0.46,1.06,0.66,1.54c0.34,0.84,0.61,1.7,0.84,2.57c0.15,0.56,0.42,1.11,0.55,1.67
		c0.19,0.82,0.29,1.6,0.58,2.4c1.12,3.05,1.21,7.03,3.81,9.3c1.7,1.71,4.17,3.19,6.07,3.55c2.03,0.45,4.4-0.4,5.94-1.72
		c0.69-0.59,1.23-1.37,1.5-2.24c0.12-0.4,0.12-0.83,0.25-1.23C379.77,247.08,379.52,247.01,379.38,246.45
		C379.37,246.43,379.45,246.72,379.38,246.45" fill="#fff" />
	<path d="M283.87,235.27c-1.05,2.47-2.54,5-4.41,6.92c-1.67,1.71-3.82,3.6-6.26,4.03c-3.43,0.98-1.81-6.07-1.53-7.54
		c0.77-3.49,1.04-9.12,5.22-10.14c0.79-0.15,1.48-0.19,2.15-0.7c0.37-0.21,0.67-0.5,0.87-0.93c0.45-0.8,0.25-3.85,2.01-2.87
		c1.69,0.95,2.65,3.04,2.8,4.89C284.76,231.06,284.56,233.26,283.87,235.27C283.41,236.33,284.15,234.46,283.87,235.27
		 M291.09,227.95c-0.05-0.21-0.01-0.49-0.06-0.79c0,0,0,0,0,0c0-0.16-0.01-0.32-0.03-0.48c-0.03-0.04-0.03-0.07-0.02-0.12
		c0-0.04-0.01-0.09-0.02-0.14c-0.02-0.05-0.05-0.11-0.07-0.17c0-0.03-0.01-0.05-0.02-0.08c0-0.08-0.01-0.15-0.02-0.22
		c0,0,0-0.01,0-0.02c0-0.05-0.02-0.1-0.04-0.14c-0.09-0.28-0.17-0.57-0.28-0.85c-0.01-0.02-0.02-0.05-0.03-0.07
		c-0.06-0.08-0.11-0.18-0.16-0.26c0-0.01,0-0.05-0.01-0.1c-0.02-0.04-0.04-0.08-0.06-0.12c-0.1-0.1-0.18-0.22-0.23-0.36
		c-0.01-0.02-0.03-0.04-0.05-0.05c-1.81-3.37-3.96-7.12-7.95-8.14c-0.06-0.02-0.11-0.04-0.17-0.05c-0.02,0-0.03,0.01-0.04,0
		c-0.01,0-0.01,0-0.02,0c-0.02-0.01-0.03-0.02-0.05-0.03c-0.04-0.01-0.09-0.02-0.13-0.03c-0.04,0-0.08,0-0.11,0
		c-0.07-0.01-0.14-0.02-0.2-0.04c-0.06-0.02-0.11-0.04-0.17-0.05c-0.01,0-0.01,0-0.01-0.01c-0.04,0-0.07-0.01-0.1-0.02
		c-0.07-0.01-0.11,0.03-0.17,0.02h0c-0.09-0.01-0.18-0.04-0.27-0.05c-0.16-0.02-0.32-0.04-0.49-0.03c-0.03,0-0.05,0-0.08,0
		c-0.02,0.01-0.04,0.01-0.07,0.01c-0.11,0-0.13,0.03-0.23,0.04c-0.01,0-0.05-0.02-0.1-0.03c-0.05,0-0.09,0.01-0.13,0.01
		c-0.11,0.03-0.25,0.04-0.36,0.07c-0.03,0-0.06,0-0.08,0.02c-1.64,0.21-2.88,1.03-4.24,1.91c-0.73,0.33-1.49,0.51-2.34,0.35
		c-0.07,0-0.14,0-0.21-0.01c-0.09-0.02-0.19-0.03-0.28-0.03c-0.08,0.02-0.18,0.04-0.26,0.04c-0.01,0-0.08-0.02-0.12-0.03
		c-0.04,0-0.08,0-0.12,0.01c-0.1,0.03-0.21,0.04-0.31,0.05c-0.19,0.01-0.47,0.1-0.64,0.18c-0.44,0.17-1,0.53-1.3,0.91
		c-0.06,0.03-0.12,0.08-0.17,0.11c-0.09,0.04-0.18,0.1-0.25,0.17c-0.07,0.13-0.15,0.26-0.2,0.4c-0.03,0.04-0.06,0.07-0.09,0.1
		c-0.02,0.01-0.04,0.01-0.05,0.01c-0.11,0.07-0.19,0.14-0.27,0.21c-0.33,0.27-0.43,0.46-0.53,0.87c-0.03,0.06-0.06,0.11-0.09,0.17
		c-0.14,0.12-0.2,0.25-0.23,0.39c-0.03,0.04-0.04,0.09-0.03,0.14c-1.73,6.23-3.52,12.35-4.5,18.75c0,0.03-0.01,0.05-0.01,0.08
		c-0.03,0.15-0.07,0.29-0.06,0.45c0,0.16,0,0.34-0.03,0.5c-0.02,0.39-0.08,0.82-0.1,1.23c-0.06,0.23-0.01,0.43,0.02,0.66
		c0,0.16-0.02,0.32-0.04,0.47c-0.12,0.34-0.3,0.89-0.1,1.24c0.01,0.02,0.04,0.1,0.05,0.16v0.12c-0.07,0.3-0.06,0.65-0.01,0.96
		c0.01,0.1,0.02,0.19,0.05,0.28c0,0.05,0.01,0.09,0.01,0.14c-0.07,0.46-0.11,0.92,0.06,1.38c0.08,0.51,0.23,1,0.56,1.41
		c0.95,2.55,2.92,4.68,5.55,5.51c3.16,1,6.45-0.2,9.23-1.73c0.52-0.2,1.06-0.39,1.61-0.54c0.53-0.28,1.02-0.67,1.5-1.07
		c0.51-0.32,0.93-0.65,1.39-1.02c0.05-0.04,0.1-0.09,0.16-0.13c0.04-0.04,0.08-0.06,0.13-0.09c0.07-0.04,0.14-0.09,0.22-0.12
		c0.38-0.31,0.75-0.63,1.11-0.96c0.02-0.06,0.05-0.11,0.09-0.15c0.05-0.05,0.11-0.07,0.17-0.1c0.1-0.1,0.21-0.21,0.31-0.31
		c0.24-0.33,0.47-0.59,0.73-0.84c0.13-0.11,0.25-0.22,0.38-0.33c0.12-0.12,0.23-0.24,0.32-0.38c0.68-0.79,1.34-1.6,1.95-2.46
		c0.2-0.37,0.43-0.79,0.73-1.09c0.08-0.12,0.16-0.25,0.24-0.37c0.08-0.18,0.16-0.36,0.24-0.53c0.96-1.65,1.72-3.57,1.86-5.5
		c0.28-1.5,0.48-3.04,0.63-4.56C291.9,231.1,291.23,229.56,291.09,227.95C291.1,227.98,291.12,228.29,291.09,227.95" fill="#fff" />
	<path d="M327.7,218.3c-0.05-0.18-0.21-0.36-0.36-0.48c-0.76-0.64-1.98-0.72-2.93-0.79c-0.82-0.06-2.11-0.03-2.69-0.06
		c-1.98-0.06-4.29,0.3-6.2-0.33c-0.68-0.29-1.18-0.77-1.34-1.54c0.03-0.22,0.06-0.45,0.06-0.46c0.06-0.26,0.12-0.52,0.2-0.77
		c0.13-0.34,0.08-0.79,0.07-1.15c0.03-0.14,0.01-0.46,0.01-0.47c0-0.03,0.02-0.08,0.03-0.11l0.03-0.11
		c0.01-0.03,0.02-0.07,0.03-0.11c0.04-0.16-0.02-0.31,0.01-0.46l0.03-0.11c0-0.01-0.01-0.35-0.02-0.36
		c-0.01-0.02,0.01-0.31,0.02-0.47c0.02-0.08,0.04-0.16,0.04-0.21c0-0.03,0.04-0.08,0.03-0.11c-0.01-0.02-0.06-0.21-0.05-0.25
		l-0.14-0.59c-0.2-0.94-0.42-1.79-1.11-2.5c-0.03-0.03-0.06-0.05-0.09-0.08c0,0-0.01,0-0.01-0.01c-0.41-0.37-0.95-0.61-1.48-0.76
		c0,0,0,0-0.01,0c-0.17-0.07-0.34-0.14-0.52-0.2c-0.05,0.02-0.09,0-0.13-0.04c-0.05-0.01-0.1-0.03-0.15-0.04
		c-0.09-0.01-0.19,0-0.28-0.02c-0.09-0.04-0.18-0.08-0.28-0.11c0,0-0.01-0.01-0.01-0.01c-0.05-0.02-0.11-0.03-0.16-0.02
		c-0.38-0.05-0.76-0.11-1.14-0.12c-0.03,0-0.06,0.01-0.09,0.01c-0.11,0-0.14,0.02-0.26,0.03c-0.01,0-0.06-0.02-0.11-0.04
		c-0.05,0-0.1,0-0.15,0c-0.06,0.02-0.12,0.04-0.19,0.05c-0.16-0.02-0.31,0-0.45,0.07c-0.49,0.21-0.95,0.3-1.39,0.64
		c-0.15,0.06-0.29,0.14-0.41,0.24c-0.18,0.15-0.35,0.33-0.49,0.52c-0.14,0.03-0.24,0.11-0.32,0.2c-0.01,0.02-0.03,0.02-0.05,0.04
		c-0.58,0.73-0.69,1.84-0.7,2.73c-0.28,2.58,0.33,6.31-0.27,7.19c-0.15,0.25-0.42,0.25-0.64,0.4l-0.51,0.23c0,0-0.24,0.2-0.37,0.29
		c-0.08,0.04-0.17,0.04-0.25,0.08c-0.12,0.05-0.22,0.13-0.33,0.19c-0.07,0.06-0.15,0.12-0.21,0.17c-0.96,0.3-1.88,0.78-2.65,1.41
		c-0.19,0.14-0.37,0.3-0.54,0.48c-0.03,0-0.04,0-0.05,0c0,0-0.02,0.01-0.04,0.01c-0.04,0.01-0.08,0.01-0.13,0.02
		c-0.12,0.07-0.23,0.17-0.32,0.29c-0.13,0.13-0.25,0.28-0.31,0.42c-0.01,0.02-0.01,0.09-0.01,0.11c-0.01,0.11-0.04,0.22-0.08,0.32
		c-0.06,0.12-0.16,0.25-0.16,0.26c0,0.02-0.07,0.15-0.07,0.16c-0.01,0.07-0.02,0.15-0.03,0.22c0,0.01-0.01,0.1-0.01,0.11
		c0,0.01,0.01,0.05,0.02,0.09c-0.43,1.39-0.36,2.99,0.48,4.2c0.55,0.95,1.42,1.71,2.45,2.09c1,0.46,2.29,1.02,2.74,2
		c0.01,0.02,0.01,0.05,0.01,0.09c-0.04,0.28-0.04,0.44,0,0.72v0.04c-0.02,0.06-0.08,0.29-0.07,0.32c-0.07,0.51-0.03,1.04-0.05,1.55
		c-0.05,0.46-0.2,1.17-0.04,1.61c-0.17,3.72,0.02,7.52,0.92,11.16c0,0.06-0.01,0.12,0,0.15c0.02,0.11,0.08,0.26,0.11,0.38
		c0.04,0.2,0.08,0.38,0.12,0.57c0.05,0.34,0.23,0.64,0.27,0.98c0.07,0.22,0.15,0.44,0.24,0.66c0.05,0.04,0.07,0.1,0.07,0.16
		c0.03,0.07,0.06,0.13,0.08,0.19c0.14,0.22,0.25,0.42,0.33,0.66c0,0.01,0,0.02,0.01,0.03c0,0.13,0.05,0.23,0.16,0.29
		c0.21,0.38,0.42,0.78,0.67,1.13c0.02,0.03,0.03,0.05,0.05,0.07c0.03,0.03,0.05,0.06,0.07,0.09c0,0,0,0,0,0.01
		c1.44,2.32,3.27,3.47,5.9,4.09c0.24,0.1,0.5,0.08,0.73,0.2c0.22,0.06,0.45,0.11,0.68,0.15c0.03-0.01,0.06-0.01,0.09-0.01
		c0.03,0.01,0.06,0.02,0.09,0.03c0.07,0.01,0.14,0.02,0.21,0.03c0.26,0,0.51,0.01,0.76,0.09c0.05,0,0.11,0.01,0.16,0.02
		c0.02,0,0.03-0.01,0.05-0.01c0.51,0.04,1.02,0.06,1.52,0.05c0.04-0.01,0.07-0.01,0.11-0.01c0.18-0.01,0.33-0.04,0.51-0.02
		c0.07-0.01,0.14-0.01,0.2-0.01c0.79-0.19,1.57-0.26,2.33-0.61c0.83-0.27,1.62-0.64,2.22-1.21c0.02-0.02,0.03-0.03,0.04-0.05
		c0.09-0.08,0.16-0.18,0.23-0.27c0.85-0.65,2.13-1.52,2.71-2.43c0.44-0.41,0.9-0.87,1.24-1.35c0.04-0.06,0.07-0.12,0.11-0.18
		c0.05-0.05,0.12-0.1,0.15-0.14c0.02-0.08,0.04-0.15,0.07-0.23c0.16-0.29,0.45-0.7,0.53-1.02c0.07-0.24,0.02-0.7,0.03-0.96v-0.01
		c0-0.57-0.04-2.84-0.99-2.76c-0.02,0-0.04,0-0.05,0c-0.08-0.02-0.14-0.02-0.15-0.04c-0.03-0.03-0.19,0-0.24,0
		c-0.01,0-0.03,0-0.05,0c-0.09-0.03-0.31-0.12-0.35-0.11c-0.05-0.01-0.22,0.01-0.25,0.01c-0.04,0-0.35,0.14-0.37,0.14
		c-0.12,0-0.66,0.15-0.76,0.23c-0.13,0.09-0.25,0.13-0.36,0.18c0,0,0,0-0.01,0c-0.32,0-1.24,0.68-1.46,0.93
		c-0.54,0.3-1.26,0.39-1.84,0.61c-0.79,0.29-1.59,0.56-2.42,0.69c-5,0.94-5.52-6.77-5.46-10.05c0.02-0.03,0.03-0.08,0.04-0.11
		c0.01-0.03,0-0.05-0.03-0.07c0.01-0.34,0.03-0.68,0.06-1.02c0.09-0.31,0.25-0.93,0.07-1.25c-0.02-0.03,0.02-0.57,0.03-0.62
		c0.02-0.04,0.04-0.1,0.04-0.14c0-0.02,0.02-0.42-0.03-0.76h0.02c0.05-0.43-0.01-1.13,0.1-1.53c0.03-0.07,0.05-0.14,0.05-0.22
		c0.1-0.45,0.14-1.04,0.15-1.45c0-0.02,0-0.45-0.01-0.48c-0.07-0.13-0.02-0.75,0.14-0.84c-0.18-2.79,0.67-2.75,1.72-3.39
		c1.47-0.53,2.79-1.51,4.32-1.9c1.24-0.31,2.67-0.29,3.67-1.19c0.79-0.62,1.13-1.46,2.53-1.65c0.1,0,0.18-0.02,0.28-0.04
		c0.03,0,0.04,0,0.06,0c0.07-0.02,0.14-0.03,0.22-0.05c0,0,0.01-0.01,0.01-0.01c0.01,0,0.02,0,0.03,0c0,0,0.01,0,0.01,0
		c0.01,0,0.01,0,0.02,0c0.01-0.01,0.03-0.01,0.04-0.02c0.08-0.03,0.14-0.05,0.22-0.08h0.01c0.02-0.01,0.03-0.01,0.05-0.02
		c0.03-0.01,0.04-0.03,0.08-0.05c0.04-0.01,0.08-0.02,0.12-0.04c0.07-0.03,0.14-0.06,0.2-0.09c0,0,0.01,0,0.02-0.01
		c0.01-0.01,0.03-0.01,0.04-0.02c0.04-0.03,0.09-0.05,0.13-0.08c0,0,0.03,0,0.05-0.01c0.02-0.01,0.04-0.02,0.06-0.03
		c0.05-0.05,0.11-0.09,0.17-0.12c0.23-0.15,0.53-0.44,0.63-0.69c0.05-0.09,0.14-0.19,0.2-0.28c0,0,0,0,0,0
		c0.01-0.02,0.03-0.04,0.04-0.06c0-0.01,0-0.01,0-0.02c0.01-0.01,0.01-0.02,0.01-0.03C327.78,218.8,327.78,218.53,327.7,218.3
		C327.7,218.3,327.7,218.3,327.7,218.3C327.67,218.2,327.7,218.3,327.7,218.3" fill="#fff" />
	<path d="M182.05,252.03c0.02-0.21-0.05-0.37-0.15-0.56c-0.01-0.02-0.03-0.17-0.04-0.18c-0.07-0.3-0.35-0.53-0.43-0.59
		c-0.01-0.01-0.07-0.12-0.08-0.13c-0.06-0.12-0.22-0.3-0.33-0.38c-0.04-0.04-0.06-0.11-0.07-0.12c-0.03-0.18-0.37-0.39-0.42-0.42
		c-0.02-0.01-0.04-0.03-0.04-0.03c-0.05-0.04-0.08-0.08-0.12-0.12c-0.05-0.09-0.1-0.18-0.19-0.24c-0.14-0.15-0.3-0.3-0.43-0.42
		c-0.04-0.04-0.09-0.09-0.13-0.13c-0.04-0.07-0.16-0.15-0.16-0.16c-0.05-0.06-0.11-0.13-0.16-0.19c-0.01-0.02-0.02-0.04-0.03-0.05
		c0,0-0.02-0.01-0.02-0.01c-0.27-0.34-0.49-0.76-0.61-1.18c0,0-0.2-1.2-0.35-1.76c-0.01-0.08-0.01-0.15-0.02-0.22
		c0.03-0.37,0.09-0.96-0.06-1.3c0-0.16-0.04-1.58-0.18-2.13c-0.02-0.12-0.03-0.14-0.04-0.18c0-0.08,0.11-0.68,0.01-1.13
		c-0.09-0.32-0.09-0.63-0.13-0.95c-0.03-0.14-0.1-0.27-0.11-0.32c-0.01-0.04,0-0.09,0.01-0.13c0.01-0.07,0.01-0.15,0.01-0.16
		c0-0.41-0.13-0.82-0.19-1.22c-0.03-0.65-0.2-1.21-0.19-1.23c-0.02-0.05-0.04-0.11-0.06-0.16c0-0.01-0.04-0.15-0.04-0.16
		c0-0.13-0.04-0.31-0.07-0.5c-0.05-0.09-0.08-0.19-0.1-0.29c0-0.02-0.01-0.03-0.01-0.05c0-0.1-0.01-0.2-0.01-0.3
		c-0.06-1.21-0.2-2.63-0.6-3.76c-0.01-0.02-0.07-0.53-0.07-0.53c0.03-0.13-0.03-0.74-0.04-0.77c0-0.18-0.05-0.48-0.09-0.66
		c-0.43-1.41-0.75-2.93-1.7-4.1c-0.01-0.03-0.03-0.06-0.06-0.08c-0.11-0.16-0.29-0.41-0.45-0.54c-0.03-0.03-0.06-0.06-0.1-0.07
		c-0.14-0.07-0.4-0.24-0.55-0.25c-0.16-0.03-0.32-0.07-0.47-0.11c-0.16-0.07-0.36-0.09-0.53-0.05c-0.02,0-0.04,0-0.06-0.01
		c-0.06-0.03-0.11-0.06-0.18-0.07c-0.05,0-0.12,0-0.16,0.01c-0.99-0.15-2.05-0.66-3.04-0.64c-1.3,0.01-2.26,1.57-2.95,2.49
		c-0.07,0.14-0.25,0.61-0.39,0.71c-0.01,0.01-0.1,0.14-0.1,0.15c-0.24,0.36-0.35,0.68-0.35,0.68l0,0.01
		c-0.14,0.06-0.23,0.19-0.3,0.32c-0.15,0.15-0.13,0.33-0.23,0.5c-0.14,0.26-0.39,0.51-0.53,0.79c-0.2,0.26-0.41,0.51-0.6,0.75
		c-0.2,0.29-0.36,0.61-0.54,0.9c-0.26,0.14-0.44,0.66-0.63,0.89c-0.36,0.31-0.61,0.87-0.62,0.89c-0.57,0.44-1.01,1.31-1.44,1.91
		c-0.11,0.04-0.21,0.2-0.29,0.28c-0.01,0.01-0.08,0.05-0.09,0.07c-0.01,0-0.02,0.01-0.03,0.03c-0.04,0.08-0.09,0.14-0.17,0.18
		c-0.08,0.02-0.14,0.07-0.18,0.14c0,0-0.01,0.03-0.01,0.05c-0.02,0.03-0.06,0.06-0.08,0.09c-0.1,0.06-0.28,0.17-0.3,0.29
		c0,0.02-0.08,0.06-0.09,0.07c-0.01,0-0.08,0.05-0.09,0.06c-0.02,0.01-0.08,0.06-0.09,0.07c-0.01,0.01-0.08,0.07-0.09,0.06
		c-0.01,0-0.02,0.01-0.03,0.02c-0.07,0.02-0.13,0.02-0.19,0.01c-0.03-0.02-0.03,0.02-0.06-0.01l-0.04-0.02
		c-0.76-0.79-0.72-1.89-0.71-2.91c0.01-1.07-0.16-2.09-0.39-3.14c-0.52-2.44-0.4-5.22-1.59-7.45c-0.4-1.16-0.76-2.76-1.45-3.76
		c-0.33-0.75-0.74-1.49-1.24-2.15c-0.1-0.29-0.25-0.38-0.47-0.56c-0.12-0.13-0.24-0.26-0.37-0.38c-0.12-0.24-0.29-0.33-0.53-0.43
		c-0.16-0.12-0.33-0.23-0.5-0.33c-0.07-0.04-0.14-0.06-0.21-0.1c-0.26-0.17-0.66-0.26-0.69-0.28c-0.5-0.19-1.07-0.35-1.58-0.45
		c-0.17-0.02-0.24-0.1-0.42-0.04c-0.06,0-0.12-0.01-0.18-0.02c-0.03-0.02-0.07-0.02-0.1-0.01c-0.23-0.02-0.45-0.03-0.67-0.04
		c-0.92-0.13-1.97,0-2.88,0.25c-0.71,0.23-1.41,0.54-1.95,1.06c-1.38,1.42-2.02,3.29-2.78,5.11c-0.96,2.28-2,4.53-2.88,6.85
		c-0.69,1.85-1.19,3.96-2.23,5.66c-0.53,0.87-0.56,1.99-1.08,2.88c-0.12,0.2-0.37,0.38-0.52,0.57c-0.18,0.25-0.34,0.73-0.6,0.89
		c-0.67,1.14-1.04-0.89-1.12-1.34c-0.17-1.02-0.11-2.1-0.29-3.11c-0.1-2.23,0.06-4.4,0.29-6.61c0.19-1.77,0.28-3.67,0-5.45
		c-0.01-0.19-0.06-0.37-0.1-0.56c-0.16-0.76-0.41-1.48-0.79-2.09c-0.59-1.12-1.46-1.6-2.64-1.84c-0.02,0-0.05-0.04-0.07-0.04
		c-0.94-0.03-2.08-0.28-2.93,0.22c-0.43,0.13-0.84,0.32-1.24,0.62c-0.01,0.01-0.09,0.12-0.1,0.12c-0.3,0.22-0.41,0.35-0.51,0.47
		c-0.08,0.06-0.15,0.13-0.19,0.21c-0.02,0.02-0.04,0.04-0.07,0.06c-0.24,0.3-0.46,0.68-0.58,1.05c0,0,0,0.01,0,0.01
		c-0.56,1.05-0.58,2.73-0.61,3.87c-0.08,0.89,0.02,1.7,0.16,2.58c0,0.14-0.01,0.28,0,0.42c0.01,0.16,0.04,0.31,0.09,0.46
		c0.01,0.18,0.01,0.36,0.01,0.54c-0.02,0.1-0.04,0.19-0.04,0.19c-0.48,0.51-0.01,3.32,0.07,3.9c0.01,0.53,0.01,1.07,0.01,1.6
		c-0.06,0.56-0.1,1.34-0.02,1.99c0,0,0.01,0.11,0.03,0.27c0,0.36,0.01,0.71,0.01,1.06v0.08c0,0.25,0.01,0.49,0.02,0.73
		c-0.09,0.96,0.07,2.04,0.14,3c0.01,0.36-0.02,0.73,0.09,1.07c0.18,2.03,0.47,4.06,0.89,6.03c0,0.56,0.14,0.94,0.33,1.45
		c0.36,1.46,0.76,3,1.6,4.27c0.77,1.15,1.68,1.48,2.95,1.83c0.59,0.2,1.22,0.35,1.9,0.47c1.58,0.42,3.18,0.48,4.31-0.86
		c0.85-0.64,0.97-1.13,1.29-2.09c0.13-0.39,0.33-0.67,0.6-0.97c0.29-0.32,0.39-0.86,0.58-1.24c1.42-2.21,3.24-4.25,3.86-6.78
		c0.15-0.4,0.25-0.83,0.35-1.27c0.6-2.06,1.39-4.05,2.07-6.09c0.57-1.71,0.95-3.48,1.52-5.19c0.38-0.55,0.87-1.03,1.09-1.67
		c0.19-0.58,0.22-1.46,0.83-1.79c0.07-0.03,0.13-0.06,0.19-0.07c0.07-0.03,0.57-0.17,0.72,0.31c0.31,0.89,0.93,1.6,1.17,2.56
		c0.28,1.07,0.28,2.34,0.4,3.45c0.3,2.66,0.42,5.33,0.83,7.98c0.18,2.05,0.26,4.11,0,6.2c0.02,0.33,0.03,0.61,0.1,0.93
		c0.02,0.14,0.05,0.29,0.08,0.43c-0.01,0.21,0.07,0.4,0.11,0.59c0.16,0.79,0.26,1.42,0.64,2.13c0,0.01,0.09,0.38,0.3,0.55
		c0.2,0.31,0.46,0.62,0.71,0.84h0c0.19,0.28,0.36,0.47,0.71,0.56c0.2,0.1,0.4,0.18,0.62,0.3c0.08,0.08,0.48,0.25,0.52,0.25
		c0.03,0.01,0.06,0.02,0.09,0.05c0.05,0.02,0.1,0.04,0.15,0.06c0.21,0.04,0.57,0.3,2.12,0.52c0.05,0.01,0.11,0.03,0.16,0.04
		c0.05,0.01,0.1,0.01,0.15,0.02c0.06-0.01,0.13-0.02,0.19-0.02c0.62,0.01,1.51,0.12,1.99-0.37c0.45-0.16,0.88-0.4,1.27-0.78
		c0.53-0.57,0.96-1.13,1.15-1.86c0.26-0.73,0.45-1.46,0.63-2.21c0.59-1.85,1.4-3.57,2.38-5.24c0.97-1.66,1.84-3.7,3.35-4.94
		c0.25-0.14,0.5-0.21,0.77-0.17c0.33,0.08,0.48,0.22,0.62,0.55c0.18,1.02,0.17,2.07,0.34,3.1c0.2,1.28,0.36,2.55,0.56,3.83
		c0.36,2.33,0.82,4.75,2.05,6.81c0.42,0.89,1.09,1.56,1.87,2.16c1.55,1.21,3.62,2.41,5.61,1.64c1.28-0.25,2.38-1.06,2.92-2.75
		c0.08-0.07,0.18-0.29,0.19-0.38c0.04-0.13,0.08-0.77,0.07-0.79c0,0,0.08-0.4,0.08-0.49C182.08,252.26,182.06,252.1,182.05,252.03"
		 fill="#fff" />
</g>
</svg>
